<svg xmlns="http://www.w3.org/2000/svg" width="24" height="24" fill="none"><path fill="#F5F8FB" d="M20.28 6.03A8.74 8.74 0 0 0 15.03 4l-.3.32c1.71.43 3.22 1.28 4.64 2.45a14.76 14.76 0 0 0-5.65-1.81c-.61-.1-1.11-.1-1.72-.1-.6 0-1.11 0-1.72.1-2.01.21-3.93.85-5.65 1.81a11.61 11.61 0 0 1 4.65-2.45L8.98 4c-1.92.1-3.74.75-5.26 2.03A26.44 26.44 0 0 0 1 17.23 7.93 7.93 0 0 0 6.85 20s.71-.85 1.21-1.6a5.61 5.61 0 0 1-3.33-2.24c.71.43 1.42.85 2.12 1.17.91.43 1.82.64 2.73.86.8.1 1.61.21 2.42.21.8 0 1.61-.1 2.42-.21.91-.22 1.82-.43 2.73-.86.7-.32 1.41-.74 2.12-1.17a5.61 5.61 0 0 1-3.33 2.24c.5.75 1.2 1.6 1.2 1.6A7.93 7.93 0 0 0 23 17.23c-.1-3.95-1-7.79-2.72-11.2ZM8.67 15.3c-1 0-1.92-.96-1.92-2.14 0-1.17.91-2.13 1.92-2.13 1 0 1.92.96 1.92 2.13 0 1.18-.91 2.14-1.92 2.14Zm6.66 0c-1 0-1.92-.96-1.92-2.14 0-1.17.91-2.13 1.92-2.13 1 0 1.92.96 1.92 2.13 0 1.18-.91 2.14-1.92 2.14Z"/></svg>