<svg xmlns="http://www.w3.org/2000/svg" width="24" height="24" fill="none"><path fill="#F5F8FB" d="M19.95 5.77c-1.9-1.5-4.91-1.76-5.04-1.77a.48.48 0 0 0-.48.28s-.07.16-.14.39c1.26.2 2.8.63 4.2 1.48.23.14.3.43.16.65a.48.48 0 0 1-.66.15A12.51 12.51 0 0 0 12 5.41c-.58 0-3.59.08-5.99 1.54a.48.48 0 0 1-.66-.15.47.47 0 0 1 .16-.65c1.4-.85 2.94-1.27 4.2-1.48l-.14-.4A.47.47 0 0 0 9.09 4c-.13.01-3.14.27-5.07 1.8C3.02 6.7 1 12.06 1 16.7c0 .09.02.17.06.24 1.4 2.4 5.19 3.03 6.05 3.06h.02c.15 0 .3-.07.38-.2l.88-1.18a9.34 9.34 0 0 1-3.63-1.68.46.46 0 0 1-.05-.66c.18-.2.48-.21.68-.04.03.02 2.25 1.88 6.61 1.88 4.37 0 6.6-1.86 6.61-1.88.2-.17.5-.15.68.04.17.2.15.5-.05.66a9.34 9.34 0 0 1-3.63 1.68l.88 1.19c.09.12.23.19.38.19h.02c.86-.03 4.66-.66 6.05-3.06a.47.47 0 0 0 .06-.23c0-4.64-2.02-10-3.05-10.94ZM8.9 14.82c-.92 0-1.67-.84-1.67-1.88s.75-1.88 1.67-1.88c.93 0 1.68.84 1.68 1.88s-.75 1.88-1.68 1.88Zm6.22 0c-.93 0-1.68-.84-1.68-1.88s.75-1.88 1.68-1.88c.92 0 1.67.84 1.67 1.88s-.75 1.88-1.67 1.88Z"/></svg>