<svg xmlns="http://www.w3.org/2000/svg" width="24" height="24" fill="none"><path fill="#F5F8FB" fill-rule="evenodd" d="M6.76 3h10.48c.8 0 1.47 0 2.01.04.56.05 1.08.15 1.57.4a4 4 0 0 1 1.74 1.74c.24.47.34.97.4 1.5A41 41 0 0 1 23 8.76v6.5c-.01.8-.01 1.46-.05 2a4.09 4.09 0 0 1-.4 1.57 4 4 0 0 1-1.74 1.74c-.49.25-1 .35-1.57.4-.54.04-1.2.04-2 .04H6.74c-.8 0-1.46 0-2-.04a4.09 4.09 0 0 1-1.57-.4 4 4 0 0 1-1.74-1.74c-.25-.49-.35-1-.4-1.57a26.7 26.7 0 0 1-.04-2v-6.5c0-.59 0-1.11.02-1.56a1 1 0 0 1 .03-.5c.05-.54.15-1.04.39-1.5a4 4 0 0 1 1.74-1.75c.49-.25 1-.35 1.57-.4.54-.04 1.2-.04 2-.04ZM3 8.92v6.28c0 .86 0 1.44.04 1.89.03.44.1.66.18.82.19.37.5.68.87.87.16.08.38.15.82.18.45.04 1.03.04 1.89.04h10.4c.86 0 1.44 0 1.89-.04.44-.03.66-.1.82-.18a2 2 0 0 0 .87-.87c.08-.16.15-.38.18-.82.04-.45.04-1.03.04-1.89V8.92l-6.6 4.61-.1.09c-.55.38-1.03.71-1.57.85a3 3 0 0 1-1.46 0 4.93 4.93 0 0 1-1.68-.94L3 8.93Zm17.92-2.38-7.66 5.36c-.73.5-.88.6-1.02.63a1 1 0 0 1-.48 0c-.14-.04-.3-.12-1.02-.63L3.08 6.54c.04-.21.09-.34.14-.45a2 2 0 0 1 .87-.87c.16-.08.38-.15.82-.18C5.36 5 5.94 5 6.8 5h10.4c.86 0 1.44 0 1.89.04.44.03.66.1.82.18.37.19.68.5.87.87.06.1.1.24.14.45Z" clip-rule="evenodd"/></svg>