<svg xmlns="http://www.w3.org/2000/svg" width="24" height="24" fill="none"><path fill="#F5F8FB" fill-rule="evenodd" d="M13.25 20.5a8.75 8.75 0 1 0-2.77 0 .18.18 0 0 1-.01-.06v-5.95c0-.1-.08-.17-.18-.17H8.54a.17.17 0 0 1-.17-.18v-2.1c0-.1.08-.17.17-.17h1.75c.1 0 .18-.08.18-.18V9.42c0-1.05 1.12-2.8 2.8-2.8h2.27c.1 0 .17.08.17.17v2.1c0 .1-.07.18-.17.18h-1.05c-.35 0-1.22.35-1.22 1.05v1.57c0 .1.07.18.17.18h1.75c.1 0 .18.08.18.17v2.1c0 .1-.08.18-.18.18h-1.75c-.1 0-.17.07-.17.17v5.95c0 .02 0 .04-.02.06Z" clip-rule="evenodd"/></svg>