<svg xmlns="http://www.w3.org/2000/svg" width="24" height="24" fill="none"><path fill="#F5F8FB" fill-rule="evenodd" d="M10.09 4.05A3.95 3.95 0 0 0 9.02 4H5.2a17 17 0 0 0-1.23.02c-.27.03-.37.06-.42.09a1 1 0 0 0-.44.44c-.03.05-.06.15-.09.42C3 5.22 3 5.53 3 6h8.38L11 5.22c-.35-.71-.44-.85-.53-.93a1 1 0 0 0-.37-.24ZM13.62 6l-.84-1.68-.06-.11c-.26-.53-.5-1-.86-1.35a3 3 0 0 0-1.12-.7C10.26 2 9.74 2 9.14 2H5.17c-.53 0-.98 0-1.36.03-.39.03-.78.1-1.16.3a3 3 0 0 0-1.31 1.3c-.2.39-.27.78-.3 1.17C1 5.18 1 5.63 1 6.16v10.08c0 .8 0 1.47.04 2.01.05.56.15 1.08.4 1.57a4 4 0 0 0 1.74 1.74c.49.25 1 .35 1.57.4.54.04 1.2.04 2 .04h10.5c.8 0 1.46 0 2-.04a4.09 4.09 0 0 0 1.57-.4 4 4 0 0 0 1.74-1.74c.25-.49.35-1 .4-1.57.04-.54.04-1.2.04-2v-4.5c0-.8 0-1.46-.04-2a4.09 4.09 0 0 0-.4-1.57 4 4 0 0 0-1.74-1.74c-.49-.25-1-.35-1.57-.4-.54-.04-1.2-.04-2-.04h-3.63Zm-.64 2a1 1 0 0 0 .04 0h4.18c.86 0 1.44 0 1.89.04.44.03.66.1.82.18.37.19.68.5.87.87.08.16.15.38.18.82.04.45.04 1.03.04 1.89v4.4c0 .86 0 1.44-.04 1.89-.03.44-.1.66-.18.82a2 2 0 0 1-.87.87c-.16.08-.38.15-.82.18-.45.04-1.03.04-1.89.04H6.8c-.86 0-1.44 0-1.89-.04-.44-.03-.66-.1-.82-.18a2 2 0 0 1-.87-.87 2.16 2.16 0 0 1-.18-.82C3 17.64 3 17.06 3 16.2V8h9.98Z" clip-rule="evenodd"/></svg>