<svg xmlns="http://www.w3.org/2000/svg" width="24" height="24" fill="none"><path fill="#F5F8FB" fill-rule="evenodd" d="M12 3.72c-2.35-2.05-5.8-2.47-8.5-.17a6.96 6.96 0 0 0-1.03 9.62 47.38 47.38 0 0 0 4.22 4.36c1.65 1.56 3.3 3.04 4.12 3.76l.01.01c.08.07.18.16.27.22a1.5 1.5 0 0 0 1.33.25c.21-.06.37-.16.48-.25.09-.06.19-.15.26-.22l.02-.01c.81-.72 2.46-2.2 4.12-3.76a47.38 47.38 0 0 0 4.21-4.36 6.91 6.91 0 0 0-1.04-9.63 6.37 6.37 0 0 0-8.48.18Zm-.77 2.07c-1.7-2-4.41-2.44-6.43-.72a4.96 4.96 0 0 0-.75 6.88c.77.98 2.36 2.56 4.01 4.12 1.54 1.46 3.09 2.84 3.93 3.6.85-.76 2.4-2.14 3.94-3.6a45.96 45.96 0 0 0 4-4.12 4.91 4.91 0 0 0-.74-6.87c-2.06-1.72-4.74-1.28-6.44.7a1 1 0 0 1-1.52 0Z" clip-rule="evenodd"/></svg>