<svg xmlns="http://www.w3.org/2000/svg" width="24" height="24" fill="none"><path fill="#F5F8FB" fill-rule="evenodd" d="M8.2 2.82c.98-.04 1.3-.05 3.8-.05s2.82.01 3.8.05c.99.05 1.66.2 2.25.43.61.24 1.17.6 1.63 1.07a4.5 4.5 0 0 1 1.07 1.63c.22.59.38 1.26.43 2.24.04.99.05 1.3.05 3.81 0 2.5-.01 2.82-.05 3.8-.05.99-.2 1.66-.43 2.25-.24.61-.6 1.17-1.07 1.63-.46.47-1.02.83-1.63 1.07-.59.22-1.26.38-2.24.43-.99.04-1.3.05-3.81.05-2.5 0-2.82-.01-3.8-.05a6.77 6.77 0 0 1-2.25-.43 4.53 4.53 0 0 1-1.63-1.07 4.52 4.52 0 0 1-1.07-1.63 6.81 6.81 0 0 1-.43-2.24c-.04-.99-.05-1.3-.05-3.81 0-2.5.01-2.82.05-3.8.05-.99.2-1.66.43-2.25.24-.61.6-1.17 1.07-1.63a4.52 4.52 0 0 1 1.63-1.07 6.81 6.81 0 0 1 2.24-.43Zm7.53 1.67c-.97-.05-1.27-.06-3.73-.06s-2.76.01-3.73.06c-.9.04-1.39.19-1.71.31-.43.17-.74.37-1.07.7-.3.3-.54.65-.69 1.06a5.1 5.1 0 0 0-.31 1.71c-.05.97-.06 1.27-.06 3.73s.01 2.76.06 3.73c.04.9.19 1.39.31 1.71.15.4.39.77.7 1.07.3.3.66.54 1.06.69.32.12.81.27 1.71.31a64 64 0 0 0 3.73.06c2.47 0 2.76-.01 3.73-.06a5.1 5.1 0 0 0 1.71-.31c.44-.17.74-.37 1.07-.7.3-.3.54-.66.69-1.06.12-.32.27-.8.31-1.71.05-.97.06-1.27.06-3.73s-.01-2.76-.06-3.73a5.1 5.1 0 0 0-.31-1.71 2.87 2.87 0 0 0-.7-1.07c-.3-.3-.65-.54-1.06-.69a5.1 5.1 0 0 0-1.71-.31Zm-4.9 10.36a3.08 3.08 0 1 0 2.36-5.7 3.08 3.08 0 0 0-2.37 5.7Zm-2.18-6.2a4.74 4.74 0 1 1 6.7 6.7 4.74 4.74 0 0 1-6.7-6.7Zm9.15-.69a1.12 1.12 0 1 0-1.54-1.63 1.12 1.12 0 0 0 1.54 1.63Z" clip-rule="evenodd"/></svg>