<svg xmlns="http://www.w3.org/2000/svg" width="24" height="24" fill="none"><path fill="#F5F8FB" fill-rule="evenodd" d="M12 3a7 7 0 0 0-7 7c0 2.74 1.44 4.23 3.27 5.77l.6.48c1.07.89 2.28 1.88 3.13 3.18.85-1.3 2.06-2.29 3.14-3.18l.6-.48C17.55 14.23 19 12.74 19 10a7 7 0 0 0-7-7Zm-9 7a9 9 0 0 1 18 0c0 3.68-2.06 5.69-3.98 7.3l-.6.5c-1.72 1.42-3.07 2.53-3.44 4.4a1 1 0 0 1-1.96 0c-.37-1.87-1.72-2.98-3.44-4.4l-.6-.5C5.06 15.69 3 13.68 3 10Zm9-2a2 2 0 1 0 0 4 2 2 0 0 0 0-4Zm-4 2a4 4 0 1 1 8 0 4 4 0 0 1-8 0Z" clip-rule="evenodd"/></svg>