<svg xmlns="http://www.w3.org/2000/svg" width="56" height="56" fill="none"><rect width="56" height="56" fill="#0D0D15" rx="6"/><path fill="url(#a)" d="M46 29v7a10 10 0 0 0-1 0v1l-7-4-10-6 8-3 9 5h1Z"/><path fill="url(#b)" d="m46 18-3 2-1 2-18-9 7-5 4 3 7 4 2 1 2 2Z"/><path fill="#0265DC" d="M35 11 10 25v-6l2-3 14-8h4l5 3ZM46 19v2L13 39l-1-1-2-3v-2l32-18 2 1 2 3ZM46 29v7a10 10 0 0 0-1 0v1a5 5 0 0 1 0 1h-1l-14 8h-4l-5-3 17-10 7-4h1Z"/><path fill="#0265DC" d="M17 13v28l-4-2-1-1-2-3V19l2-3 5-3Z"/><defs><linearGradient id="a" x1="44.6" x2="30.3" y1="33.4" y2="23.6" gradientUnits="userSpaceOnUse"><stop stop-color="#0265DC"/><stop offset="1" stop-color="#0265DC" stop-opacity="0"/></linearGradient><linearGradient id="b" x1="42.2" x2="29.3" y1="19.9" y2="11.5" gradientUnits="userSpaceOnUse"><stop stop-color="#0265DC"/><stop offset="1" stop-color="#0265DC" stop-opacity="0"/></linearGradient></defs></svg>