<svg xmlns="http://www.w3.org/2000/svg" width="24" height="24" fill="none"><path fill="#F5F8FB" fill-rule="evenodd" d="M6.9 3.66a1 1 0 0 0-.9 0c-.1.06-.24.17-.82.76l-.16.16c-.56.56-.71.72-.83.93-.14.25-.26.7-.26.99 0 .25.04.4.2.99a18.04 18.04 0 0 0 4.62 7.85 18.04 18.04 0 0 0 7.85 4.62c.58.16.74.2 1 .2.28 0 .73-.12.98-.26.21-.12.37-.27.93-.83l.16-.16c.59-.58.7-.72.76-.82a1 1 0 0 0 0-.9c-.06-.11-.17-.25-.76-.83l.7-.7-.7.7-.2-.2a4.72 4.72 0 0 0-.53-.5 1 1 0 0 0-1.1 0 4.72 4.72 0 0 0-.55.53c-.1.09-.2.2-.34.3l-.59-.81.59.8a2.04 2.04 0 0 1-2.12.14h-.03a15.6 15.6 0 0 1-7.32-7.33l-.01-.03c-.05-.1-.12-.23-.16-.4l.96-.27-.96.28a2.04 2.04 0 0 1 .3-1.73c.09-.13.2-.25.3-.34l.02-.02c.38-.39.46-.47.5-.54a1 1 0 0 0 0-1.09 4.71 4.71 0 0 0-.5-.54l-.2-.2c-.59-.58-.72-.7-.82-.75ZM5.1 1.88a3 3 0 0 1 2.7 0c.44.22.82.6 1.25 1.03l.1.1.2.19.05.06c.3.29.54.53.71.8l-.84.55.84-.55a3 3 0 0 1 0 3.27 5.27 5.27 0 0 1-.88.98 2.15 2.15 0 0 0 .05.11 13.6 13.6 0 0 0 6.39 6.39l-.43.9.43-.9.08.03.03.02.12-.11.06-.06c.28-.3.53-.54.8-.71a3 3 0 0 1 3.27 0c.26.17.51.42.8.7l.06.07-.7.7.7-.7.2.2.1.09c.43.43.8.8 1.02 1.24a3 3 0 0 1 0 2.71c-.22.43-.6.8-1.03 1.24l-.1.1-.15.16-.07.06c-.47.47-.82.83-1.3 1.1-.55.3-1.34.51-1.97.51-.56 0-.96-.12-1.48-.26l-.05-.02c-3.2-.9-6.21-2.62-8.72-5.13a20.04 20.04 0 0 1-5.15-8.77c-.14-.52-.26-.92-.26-1.48 0-.63.2-1.42.51-1.97A6.04 6.04 0 0 1 3.6 3.16L3.76 3l.1-.1c.43-.43.8-.8 1.24-1.02l.45.88-.45-.88Z" clip-rule="evenodd"/></svg>