<svg xmlns="http://www.w3.org/2000/svg" width="36" height="40" fill="none"><g clip-path="url(#a)"><path fill="url(#b)" d="M35.6 22v6.8a10.1 10.1 0 0 0-.2.7l-.2.3-6.8-3.7L18 20.3l8-3.7 9.6 5.4h.1Z"/><path fill="url(#c)" d="m35.5 11-2 1.6-1.8 2.8-17.3-9.6L21 1.2l4 2.3 7.2 4.2 1.5.9c1 .5 1.6 1.4 1.8 2.4Z"/><path fill="#0265DC" d="M25 3.5 0 17.8v-5.9c0-1.4.7-2.6 2-3.3l13.9-8c1.2-.8 2.7-.8 3.9 0l5.1 2.9ZM35.6 12v2L3.4 32.2 2 31.4c-1.3-.7-2-2-2-3.4v-2L32.2 7.7l1.5.9c1.2.7 2 2 2 3.3ZM35.6 22v7h-.1l-.1.5-.2.3-.1.2a5 5 0 0 1-.5.6v.1a3.1 3.1 0 0 1-.3.3 1.4 1.4 0 0 1-.3.2l-.2.1h-.1l-14 8.1c-1.1.7-2.6.7-3.8 0l-5.1-3 17.6-10.3 7.1-4.1h.1Z"/><path fill="#0265DC" d="M7 5.6v28.7l-3.6-2-1.4-1c-1.3-.6-2-1.9-2-3.3V12c0-1.5.7-2.7 2-3.4l5-3Z"/></g><defs><linearGradient id="b" x1="34.6" x2="20.3" y1="26.4" y2="16.6" gradientUnits="userSpaceOnUse"><stop stop-color="#0265DC"/><stop offset="1" stop-color="#0265DC" stop-opacity="0"/></linearGradient><linearGradient id="c" x1="32.2" x2="19.3" y1="12.9" y2="4.5" gradientUnits="userSpaceOnUse"><stop stop-color="#0265DC"/><stop offset="1" stop-color="#0265DC" stop-opacity="0"/></linearGradient><clipPath id="a"><path fill="#fff" d="M0 0h36v40H0z"/></clipPath></defs></svg>