<svg xmlns="http://www.w3.org/2000/svg" width="24" height="24" fill="none"><path fill="#F5F8FB" d="M12 2.77a9.23 9.23 0 1 1 0 18.46 9.23 9.23 0 0 1 0-18.46Zm3.77 5.56c-.34 0-.88.19-3.44 1.25a437 437 0 0 0-5.38 2.32c-.44.18-.67.35-.69.51-.04.32.42.42 1 .6.47.16 1.1.34 1.43.35.3 0 .63-.12 1-.37a95.5 95.5 0 0 1 3.9-2.58c.05 0 .13-.02.19.02.05.05.05.14.04.17-.04.2-2.4 2.34-2.54 2.48-.52.54-1.11.87-.2 1.47.79.52 1.25.85 2.06 1.38.52.34.93.75 1.46.7.25-.02.5-.26.63-.95.3-1.63.9-5.17 1.05-6.63.01-.13 0-.3-.02-.37a.39.39 0 0 0-.13-.25.6.6 0 0 0-.36-.1Z"/></svg>