<svg xmlns="http://www.w3.org/2000/svg" width="24" height="24" fill="none"><path fill="#F5F8FB" fill-rule="evenodd" d="M12 4a3.5 3.5 0 1 0 0 7 3.5 3.5 0 0 0 0-7ZM6.5 7.5a5.5 5.5 0 1 1 11 0 5.5 5.5 0 0 1-11 0ZM12 16a8.74 8.74 0 0 0-7.33 3.98c.15.02.36.02.76.02h13.14c.4 0 .6 0 .76-.02A8.74 8.74 0 0 0 12 16Zm-8.58 2.3a10.74 10.74 0 0 1 17.16 0l.03.04c.17.22.35.46.48.7.16.28.27.6.27 1 0 .31-.1.61-.22.85-.12.23-.3.49-.55.68-.33.27-.7.36-1.02.4-.28.03-.61.03-.95.03H5.38c-.34 0-.67 0-.95-.03a1.98 1.98 0 0 1-1.02-.4 2.02 2.02 0 0 1-.76-1.54c-.01-.39.1-.71.26-1 .13-.23.31-.47.48-.7l.03-.03Z" clip-rule="evenodd"/></svg>