<svg xmlns="http://www.w3.org/2000/svg" width="24" height="24" fill="none"><path fill="#F5F8FB" fill-rule="evenodd" d="m5 1 1 1v2h1a1 1 0 0 1 0 2H6v1a1 1 0 0 1-2 0V6H2a1 1 0 0 1 0-2h2V2l1-1Zm8 1 1 1 2 4v1l1 1h1l4 2a1 1 0 0 1 0 2l-4 2h-1l-1 1v1l-2 4a1 1 0 0 1-2 0l-2-4v-1l-1-1H8l-4-2a1 1 0 0 1 0-2l4-2h1l1-1V7l2-4 1-1Zm0 4-1 2a74 74 0 0 0-1 1l-1 1a7 7 0 0 1-1 1l-2 1 2 1a74 74 0 0 0 1 1l1 1a7 7 0 0 1 1 1l1 2 1-2a80 80 0 0 0 1-1l1-1a7 7 0 0 1 1-1l2-1-2-1a79 79 0 0 0-1-1l-1-1a7 7 0 0 1-1-1l-1-2ZM5 16l1 1v2h1a1 1 0 1 1 0 2H6v1a1 1 0 1 1-2 0v-1H2a1 1 0 1 1 0-2h2v-2l1-1Z" clip-rule="evenodd"/></svg>